# xmcd
#
# Track frame offsets:
#	150
#	15365
#	32800
#	51913
#	64616
#	77786
#	90124
#	105285
#	120485
#	136418
#	148168
#	164951
#	178247
#	197524
#	213821
#	231039
#	241624
#	253774
#	271263
#	284290
#	300203
#	308161
#
# Disc length: 4320 seconds
#
# Revision: 0
# Processed by: cddbd v1.5.2PL0 Copyright (c) Steve Scherf et al.
# Submitted via: dBpowerAMP V4.0
#
DISCID=2110de16
DTITLE=Various Artist - The Very Best of South African Country Volume 3
DYEAR=1997
DGENRE=Country
TTITLE0=Barbara Ray - Silver threads and golden needles
TTITLE1=Ken Mullen - An old love
TTITLE2=Jody Wayne - Tell me
TTITLE3=Charles Jacobie - It's who you love
TTITLE4=Matt Hurter - Tequila Sheila
TTITLE5=Lance James - The door is always open
TTITLE6=Virginia Lee - Have I told you lately that I love you
TTITLE7=Chrissy Jackson - Cheating
TTITLE8=Tommy Dell - Amanda
TTITLE9=Vangie Coker - Happy birthday dear heartache
TTITLE10=Charlie Dicks - Green to blue
TTITLE11=Lee Magnum - The story of my life
TTITLE12=Kenny Oliver - Can't win for losing you
TTITLE13=Gene and Duane - Growing up ain't easy
TTITLE14=OTH - Tomorrows dreams
TTITLE15=Ray Chord - He'll have to go
TTITLE16=Joanna Field - Single again
TTITLE17=Gerry Grayson and Debbie - Tears on the telephone
TTITLE18=Billy Forrest - 500 Miles away from home
TTITLE19=Bobby Angel - Stop and smell the roses
TTITLE20=Louis Shawson - Be my lover
TTITLE21=Dave Weston - Give her all the roses
EXTD=
EXTT0=
EXTT1=
EXTT2=
EXTT3=
EXTT4=
EXTT5=
EXTT6=
EXTT7=
EXTT8=
EXTT9=
EXTT10=
EXTT11=
EXTT12=
EXTT13=
EXTT14=
EXTT15=
EXTT16=
EXTT17=
EXTT18=
EXTT19=
EXTT20=
EXTT21=
PLAYORDER=
